<?xml version="1.0" encoding="utf-8"?>
<!-- Generator: Adobe Illustrator 16.0.0, SVG Export Plug-In . SVG Version: 6.00 Build 0)  -->
<!DOCTYPE svg PUBLIC "-//W3C//DTD SVG 1.1//EN" "http://www.w3.org/Graphics/SVG/1.1/DTD/svg11.dtd">
<svg version="1.1" id="Layer_1" xmlns="http://www.w3.org/2000/svg" xmlns:xlink="http://www.w3.org/1999/xlink" x="0px" y="0px"
	 width="36px" height="36px" viewBox="0 0 36 36" enable-background="new 0 0 36 36" xml:space="preserve">
<g display="none">
	<rect display="inline" width="36" height="36"/>
	<g display="inline">
		<path d="M33.332,0H2.657C1.191,0,0,1.2,0,2.594v30.809C0,34.8,1.2,36,2.7,36h30.675C34.801,36,36,34.8,36,33.402V2.594
			C36,1.2,34.8,0,33.3,0H33.332z"/>
		<path d="M5.335,13.498h5.341v17.178H5.335V13.498z M8.006,4.956c1.707,0,3.1,1.4,3.1,3.1c0,1.71-1.387,3.098-3.094,3.098
			c-1.711,0-3.095-1.388-3.095-3.098C4.911,6.3,6.3,5,8,5"/>
		<path d="M14.026,13.498h5.123v2.346h0.072c0.715-1.35,2.455-2.774,5.053-2.774c5.402,0,6.4,3.6,6.4,8.2v9.422H25.34V22.34
			c0-1.994-0.037-4.558-2.775-4.558c-2.774,0-3.201,2.171-3.201,4.411v8.498h-5.334L14.026,13.498L14.026,13.498z"/>
	</g>
</g>
<g display="none">
	<g display="inline">
		<rect width="36" height="36"/>
		<g>
			<path d="M16.301,2.628c0.282,0.2,0.6,0.4,1,0.771c0.339,0.4,0.7,0.8,1,1.3c0.311,0.5,0.6,1.1,0.801,1.718
				c0.196,0.7,0.299,1.4,0.299,2.313c-0.024,1.616-0.381,2.908-1.063,3.9c-0.335,0.47-0.69,0.903-1.066,1.3
				c-0.415,0.396-0.856,0.8-1.327,1.212c-0.268,0.279-0.515,0.594-0.742,0.9c-0.269,0.367-0.403,0.793-0.403,1.278
				c0,0.5,0.1,0.9,0.4,1.167c0.233,0.3,0.5,0.6,0.7,0.771l1.526,1.301c0.948,0.799,1.802,1.602,2.5,2.575c0.675,1,1,2.2,1.103,3.746
				c0,2.188-0.963,4.127-2.889,5.8c-1.995,1.746-4.875,2.65-8.638,2.709c-3.15-0.029-5.503-0.703-7.056-2.021
				C0.785,32.1,0,30.7,0,28.9c0-0.836,0.255-1.769,0.765-2.793c0.495-1.025,1.391-1.926,2.688-2.703
				c1.457-0.834,2.987-1.396,4.59-1.67c1.588-0.236,2.907-0.367,3.956-0.396c-0.324-0.43-0.613-0.887-0.867-1.373
				c-0.295-0.474-0.443-1.042-0.443-1.706c0-0.398,0.056-0.731,0.168-0.997c0.099-0.281,0.19-0.539,0.275-0.775
				c-0.511,0.059-0.992,0.088-1.445,0.1c-2.395-0.029-4.219-0.786-5.475-2.269c-1.314-1.38-1.971-2.988-1.971-4.824
				c0-2.217,0.931-4.229,2.793-6.035C6.313,2.4,7.6,1.7,9,1.418C10.385,1.1,11.7,1,12.9,1h8.997L19.12,2.628H16.301z M18.039,28.6
				c0-1.146-0.372-2.145-1.118-2.996c-0.788-0.809-2.019-1.799-3.694-2.975c-0.287-0.029-0.623-0.043-1.009-0.043
				c-0.229-0.031-0.817,0-1.762,0.086c-0.931,0.133-1.883,0.346-2.857,0.641c-0.229,0.088-0.552,0.222-0.967,0.4
				c-0.416,0.189-0.837,0.461-1.267,0.814c-0.416,0.367-0.766,0.822-1.053,1.367c-0.33,0.569-0.494,1.262-0.494,2.1
				c0,1.6,0.7,2.9,2.1,3.922c1.36,1,3.2,1.6,5.6,1.586c2.119-0.029,3.737-0.498,4.854-1.41C17.495,31.2,18,30,18,28.625L18.039,28.6
				z M11.768,15.387c1.184-0.044,2.169-0.471,2.959-1.281c0.381-0.574,0.626-1.162,0.734-1.765c0.065-0.603,0.098-1.111,0.098-1.523
				c0-1.781-0.454-3.576-1.361-5.386c-0.425-0.868-0.985-1.575-1.679-2.119c-0.709-0.515-1.524-0.788-2.446-0.817
				c-1.219,0.03-2.232,0.523-3.041,1.5C6.352,5,6,6.1,6.1,7.33c0,1.6,0.5,3.3,1.4,5.1c0.461,0.8,1.1,1.5,1.8,2.1
				c0.697,0.57,1.5,0.87,2.5,0.857H11.768z"/>
			<polygon points="36,15.1 31.2,15.1 31.2,10.2 28.4,10.2 28.4,15.1 23.7,15.1 23.7,17.8 28.4,17.8 28.4,22.6 31.2,22.6 31.2,17.8 
				36,17.8 			"/>
		</g>
	</g>
</g>
<g>
	<path fill="#4373C4" d="M34.037,35.999h-9.176v-13.94h4.658v-0.002h0.021l0.7-5.433h-5.383v-3.469c0-1.375,0.334-2.366,1.925-2.595
		c0.225-0.031,0.473-0.048,0.749-0.048l2.876-0.002h0.021V5.651c-0.5-0.113-2.214-0.213-4.201-0.213h-0.002
		c-0.004,0-0.006,0-0.011,0c-4.149,0-6.989,2.532-6.989,7.181v4.007h-4.678h-0.013v5.433h0.013h4.678V36H36v-1.754
		C35.884,35.23,35.055,35.999,34.037,35.999z"/>
	<path fill="#4373C4" d="M36,1.794V0h-2C35.033,0,35.881,0.797,36,1.794z"/>
	<path fill="#4373C4" d="M1.987,0H0v1.987C0,0.9,0.89,0,1.987,0z"/>
	<path fill="#4373C4" d="M0,34.016V36h1.989C0.894,36.009,0,35.111,0,34.016z"/>
</g>
<g display="none">
	<g display="inline">
		<rect width="36" height="36"/>
		<path d="M36.001,7.463c-1.325,0.587-2.748,0.984-4.243,1.163c1.524-0.915,2.696-2.362,3.248-4.087C33.578,5.4,32,6,30.3,6.333
			C28.969,4.9,27,4,24.9,4c-4.078,0-7.386,3.307-7.386,7.4c0,0.6,0.1,1.1,0.2,1.683C11.592,12.8,6.1,9.8,2.5,5.352
			c-0.636,1.09-1,2.359-1,3.7c0,2.6,1.3,4.8,3.3,6.147c-1.21-0.039-2.35-0.371-3.345-0.924c-0.001,0.031-0.001,0.062-0.001,0.1
			c0,3.6,2.5,6.6,5.9,7.242c-0.62,0.168-1.271,0.26-1.945,0.26c-0.476,0-0.939-0.047-1.389-0.133c0.939,2.9,3.7,5.1,6.9,5.129
			c-2.527,1.98-5.712,3.162-9.172,3.162c-0.596,0-1.184-0.035-1.763-0.104c3.269,2.1,7.2,3.299,11.3,3.315
			c13.585,0,21.014-11.254,21.014-21.014c0-0.32-0.008-0.639-0.021-0.955C33.757,10.2,35,8.9,36.001,7.463L36.001,7.463z"/>
	</g>
</g>
</svg>
