<?xml version="1.0" encoding="utf-8"?>
<!-- Generator: Adobe Illustrator 16.0.0, SVG Export Plug-In . SVG Version: 6.00 Build 0)  -->
<!DOCTYPE svg PUBLIC "-//W3C//DTD SVG 1.1//EN" "http://www.w3.org/Graphics/SVG/1.1/DTD/svg11.dtd">
<svg version="1.1" id="logo" xmlns="http://www.w3.org/2000/svg" xmlns:xlink="http://www.w3.org/1999/xlink" x="0px" y="0px"
	 width="200px" height="240px" viewBox="0 0 200 240" enable-background="new 0 0 200 240" xml:space="preserve">
<rect fill="#3E70C3" width="200" height="240"/>
<g>
	<g>
		<path fill="#FFFFFF" d="M18.618,192.125c0-11.652,8.49-20.646,20.474-20.646c11.988,0,20.479,8.99,20.479,20.646
			c0,11.645-8.492,20.641-20.479,20.641C27.108,212.77,18.618,203.771,18.618,192.125z M53.912,192.125
			c0-8.607-5.828-15.652-14.82-15.652c-8.99,0-14.815,7.045-14.815,15.652c0,8.602,5.823,15.643,14.815,15.643
			C48.084,207.771,53.912,200.727,53.912,192.125z"/>
		<path fill="#FFFFFF" d="M94.588,180.965c-2.216-2.881-5.882-4.492-9.488-4.492c-8.823,0-14.651,7.045-14.651,15.98
			c0,8.273,5.492,15.314,14.651,15.314c4.498,0,7.935-1.996,10.267-5.273l4.496,3.381c-1.164,1.615-5.882,6.887-14.874,6.887
			c-12.484,0-20.198-10.438-20.198-20.312c0-12.207,8.378-20.977,20.474-20.977c5.166,0,10.601,1.941,13.765,6.107L94.588,180.965z"
			/>
		<path fill="#FFFFFF" d="M106.301,172.473h5.324v16.316h20.365v-16.316h5.33v39.291h-5.33v-17.982h-20.365v17.982h-5.32
			L106.301,172.473L106.301,172.473z"/>
		<path fill="#FFFFFF" d="M159.744,172.473h4.826l16.816,39.291h-6.219l-3.938-9.709h-18.703l-3.887,9.709h-6.213L159.744,172.473z
			 M169.285,197.396l-7.324-18.037h-0.111l-7.438,18.039h14.873V197.396z"/>
	</g>
	<g>
		<g>
			<path fill="#FFFFFF" d="M88.056,76.906c0-6.612,5.378-11.956,11.958-11.956l0,0c6.611,0.023,11.922,5.35,11.939,11.956l0,0
				c-0.018,6.594-5.336,11.916-11.939,11.932l0,0V88.08v-0.756c5.779,0,10.428-4.654,10.428-10.418l0,0
				c0-5.776-4.664-10.437-10.428-10.437l0,0c-5.764,0.006-10.439,4.662-10.445,10.437l0,0c0.008,5.764,4.682,10.406,10.445,10.418
				l0,0v0.756v0.758C93.434,88.838,88.056,83.512,88.056,76.906L88.056,76.906z"/>
			<path fill="#FFFFFF" d="M78.566,76.906c0-11.834,9.59-21.471,21.449-21.471l0,0c11.828,0,21.449,9.629,21.449,21.471l0,0
				c0,11.815-9.621,21.434-21.449,21.438l0,0v-0.748v-0.762c10.984-0.018,19.926-8.954,19.945-19.932l0,0
				c-0.02-11.006-8.957-19.938-19.945-19.96l0,0c-11.012,0.021-19.914,8.954-19.939,19.96l0,0
				c0.025,10.976,8.928,19.912,19.939,19.932l0,0v0.762v0.748C88.156,98.344,78.566,88.722,78.566,76.906L78.566,76.906z"/>
			<path fill="#FFFFFF" d="M68.206,76.906c0-17.572,14.25-31.792,31.808-31.792l0,0c17.549,0,31.779,14.22,31.783,31.792l0,0
				c-0.004,17.54-14.229,31.77-31.783,31.77l0,0v-0.754v-0.758c16.709-0.032,30.248-13.548,30.279-30.26l0,0
				c-0.031-16.736-13.57-30.254-30.279-30.296l0,0c-16.722,0.042-30.268,13.56-30.298,30.296l0,0
				c0.028,16.712,13.576,30.229,30.298,30.26l0,0v0.758v0.754C82.458,108.676,68.206,94.46,68.206,76.906L68.206,76.906z"/>
			<path fill="#FFFFFF" d="M58.316,76.906c0-23.064,18.655-41.719,41.693-41.719l0,0c23.045,0,41.727,18.654,41.727,41.719l0,0
				c0,23.029-18.682,41.699-41.727,41.699l0,0v-0.758v-0.754c22.209-0.042,40.178-18,40.217-40.186l0,0
				c-0.043-22.225-18.004-40.174-40.217-40.21l0,0c-22.208,0.038-40.146,17.985-40.184,40.21l0,0
				c0.042,22.188,17.978,40.144,40.184,40.186l0,0v0.754v0.758C76.972,118.604,58.316,99.936,58.316,76.906L58.316,76.906z"/>
			<path fill="#FFFFFF" d="M47.366,76.906c0-29.082,23.567-52.674,52.642-52.683l0,0c29.076,0.007,52.648,23.601,52.648,52.683l0,0
				c0,29.076-23.574,52.641-52.648,52.641l0,0v-0.766v-0.75c28.24-0.045,51.096-22.879,51.145-51.129l0,0
				c-0.047-28.248-22.904-51.122-51.145-51.177l0,0C71.77,25.78,48.918,48.654,48.864,76.902l0,0
				c0.054,28.25,22.905,51.08,51.144,51.129l0,0v0.75v0.766C70.936,129.543,47.366,105.982,47.366,76.906L47.366,76.906z"/>
			<g>
				<g>
					<polygon fill="#FFFFFF" points="99.238,65.718 99.238,24.986 100.758,24.986 100.758,65.718 					"/>
				</g>
			</g>
			<g>
				<g>
					<polygon fill="#FFFFFF" points="62.804,40.73 63.876,39.668 92.64,68.45 91.564,69.52 					"/>
				</g>
			</g>
			<g>
				<g>
					<polygon fill="#FFFFFF" points="48.108,77.65 48.108,76.154 88.81,76.154 88.81,77.65 					"/>
				</g>
			</g>
			<g>
				<g>
					<polygon fill="#FFFFFF" points="62.804,113.028 91.564,84.304 92.64,85.368 63.876,114.102 					"/>
				</g>
			</g>
			<g>
				<g>
					<polygon fill="#FFFFFF" points="99.238,128.781 99.238,88.08 100.758,88.08 100.758,128.781 					"/>
				</g>
			</g>
			<g>
				<g>
					<polygon fill="#FFFFFF" points="107.387,85.368 108.457,84.304 137.23,113.028 136.16,114.102 					"/>
				</g>
			</g>
			<g>
				<g>
					<polygon fill="#FFFFFF" points="111.195,77.656 111.195,76.154 151.912,76.154 151.912,77.656 					"/>
				</g>
			</g>
			<g>
				<g>
					<polygon fill="#FFFFFF" points="107.387,68.45 136.16,39.668 137.23,40.73 108.457,69.52 					"/>
				</g>
			</g>
		</g>
		<g>
			<path fill="#FFFFFF" d="M92.014,80.274c0.46-0.057,0.38,0.348,0.534,0.6c0,0.014,0.124,0.014,0.188,0
				c0.688-0.744,1.124-1.622,1.298-2.648c0-0.079,0.193-0.168,0.193-0.201c-0.104-0.462-0.605-0.62-0.821-1.009
				c-0.263,0.687-0.956,0.126-1.482,0.463c-0.004,0.01-0.048,0.199,0.088,0.25c0.187,0.092,0.46,0.006,0.521,0.151
				c0.124,0.18,0.124,0.498-0.061,0.724c-0.023,0.055-0.178,0.043-0.178,0c-0.27-0.527-0.704-0.455-1.188-0.455
				c0.201,0.174-0.154,0.123-0.068,0.228c-0.674-0.18-1.322,0.144-1.972,0.204c-0.2,0.021-0.456-0.132-0.629-0.309
				c-0.237,0.246-0.514,0.732-0.882,0.597c-0.124-0.054-0.33-0.349-0.197-0.42c0.376-0.223,0.703-0.482,0.88-0.843
				c0.144-0.291,0-0.642,0.158-0.936c0.193-0.382,0.502-0.744,0.859-0.714c0.408,0,1.16,0.36,1.502-0.084
				c0.124-0.114,0.376,0.248,0.53,0.416c0.054,0.052-0.032,0.142-0.094,0.214c-0.242,0.246-0.628,0.272-0.778,0.636
				c-0.114,0.25,0.03,0.468,0.222,0.534c0.312,0.146,0.406-0.284,0.557-0.5c0.178-0.208,0.361-0.038,0.529,0
				c0-0.066-0.016-0.16,0-0.16c0.366-0.109,0.782-0.048,1.164-0.048c0.452,0,0.212-0.918,0.168-1.466c0-0.12-0.01-0.276,0-0.408
				c0-0.066,0-0.144,0.044-0.208c0.133-0.3,0.715-0.384,0.803-0.065c0.016,0.113,0.042,0.207,0.069,0.306
				c0.03,0.164,0.108,0.256,0.312,0.164c0.048-0.032,0.107-0.08,0.12-0.164c0.08-0.174,0.044-0.458,0.16-0.554
				c0.174-0.181,0.416,0.271,0.697,0.313c0.284,0.066,0.601,0.066,0.832-0.096c0.2-0.12,0.2-0.354,0.032-0.59
				c-0.064-0.108-0.228-0.124-0.264-0.078c-0.263,0.27-0.601,0.204-0.882,0.204c-0.263,0-0.387-0.326-0.61-0.48
				c-0.248-0.174-0.554,0.178-0.842,0.059c-0.272-0.124-0.406-0.391-0.25-0.641c0.063-0.124,0.25-0.24,0.409-0.332
				c0.334-0.168,0.721-0.168,0.908-0.456c0.143-0.256,0.232-0.575,0.25-0.872c0.017-0.162,0.179-0.162,0.267-0.18
				c0.39-0.138,0.838-0.042,1.178-0.21c0.39-0.152,0.686-0.486,1.076-0.75c0.188-0.1,0.366-0.216,0.584-0.262
				c0.105-0.032,0.168-0.218,0.188-0.294c0.08-0.656-0.1-1.26,0-1.952c0.05-0.181,0.326-0.294,0.187-0.492
				c-0.04-0.072-0.311,0.046-0.376-0.044c-0.152-0.124-0.282-0.384-0.064-0.521c0.168-0.15,0.534-0.019,0.664-0.253
				c0.224-0.312,0.112-0.901-0.248-1.016c-0.352-0.18-0.75,0.152-1.16,0.066c0.048,0.155-0.168,0.21-0.228,0.21
				c-0.504,0.168-0.544-0.458-0.456-0.801c0-0.071,0.048-0.113,0.098-0.09c0.124,0.021,0.148-0.147,0.168-0.292
				c-0.113,0-0.258-0.012-0.355,0c-0.446,0.223-0.645,0.696-1.09,0.925c-0.053,0.048-0.053,0.132-0.019,0.203
				c0.019,0.055,0.084,0.139,0.152,0.108c0,0.282,0.09,0.75-0.391,0.636c-0.044-0.02-0.044-0.12-0.079-0.134
				c-0.12-0.09-0.396-0.154-0.46,0c-0.08,0.32,0.569,0.462,0.415,0.782c-0.252,0.443-0.867,0.527-1.371,0.768
				c-1.055,0.414-2.15-0.06-3.274,0.18c-0.59,0.114-1.188,0.036-1.808-0.132c-0.44-0.084-0.524,0.3-0.75,0.597
				c-0.017-0.055-0.044-0.114-0.124-0.09c-0.03-0.229,0.107-0.402,0.054-0.637c-0.026-0.18-0.312-0.158-0.38-0.308
				c-0.734-1.38-2.51-1.208-3.858-0.979c-0.254,0.024-0.352,0.282-0.516,0.44c-0.274,0.246-0.654-0.038-0.95,0.162
				c-0.134,0.084-0.188,0.277-0.302,0.298c-0.406,0.116-0.842-0.298-1.188-0.084c-0.231,0.198-0.523,0.228-0.766,0.342
				c-0.086,0.066-0.086,0.252-0.114,0.416c0,0.12-0.208,0.088-0.273,0.088c-0.376,0.122-0.937-0.08-1.011,0.462
				c0.015,0,0.108,0,0.137,0c0.149,0.433-0.062,0.918-0.477,1.088c-0.466,0.162-0.983,0.124-1.446,0.314
				c-0.222,0.078-0.52,0.294-0.604,0.498c-0.734,1.296-1.432,2.63-1.48,4.12c0,0.054,0,0.096,0,0.162c0,0.098,0.16,0.186,0.16,0.22
				c-0.72,1.538-1.2,2.32-2.032,3.79c-0.342,0.596-0.752,2.048-0.136,2.54c0.307,0.25-0.168,0.857-0.614,0.888
				c-0.563,0.026-1.323-0.114-1.525-0.729c-0.098-0.267-0.568-0.314-0.93-0.36c0,0,0.025,0,0.048,0l-0.274-0.032
				c-0.42,0-0.872-0.088-1.222,0.032c-0.645,0.166-0.692,0.918-0.98,1.428c-0.2,0.458-0.936,0.343-1.153,0.774
				c-0.104,0.184,0.105,0.5-0.061,0.766c-0.114,0.181-0.362,0.181-0.426,0.385c-0.042,0.115-0.07,0.277-0.145,0.386
				c-0.161,0.592-0.277,1.134-0.138,1.722c0.015,0.168,0.015,0.342,0.061,0.458c0.151,0.62-0.044,1.152-0.316,1.656
				c-0.4,0.582-1.11,0.582-1.756,0.786c-0.274,0.122-0.606-0.162-0.93-0.088c-0.744,0.136-1.46-0.175-2.164,0.065
				c-0.042,0.024-0.179,0.114-0.238,0.168c-0.362,0.145-0.49-0.26-0.692-0.434c-0.216-0.214-0.237-0.595-0.46-0.708
				c-0.426-0.204-1.01,0.027-1.312,0.456c0.197-0.026-0.006,0.228,0.151,0.228c-0.47,0.024-0.827,0.435-1.184,0.603
				c-0.476,0.26-0.584-0.576-0.624-1.074c-0.05-0.252-0.452-0.416-0.812-0.229c-0.061,0.074-0.139,0.13-0.139,0.265
				c-0.107,0-0.2-0.132-0.302-0.036c-0.318,0.354,0.248,0.312,0.416,0.524c0.108,0.1-0.028,0.226-0.148,0.312
				c-0.164,0.13-0.414-0.138-0.438,0C54,89.944,53.858,90.07,53.67,90c0,0.07-0.034,0.088,0,0.136c0,0.068,0.05,0.116,0.12,0.068
				c-0.184,0.072-0.362,0.186-0.496,0.084c-0.168-0.084-0.114-0.36-0.168-0.582c-0.034-0.048-0.216,0-0.216,0.07
				c-0.064,0.359,0.036,0.476-0.358,0.5c0.042,0.13-0.104,0.359,0.088,0.396c0.204,0.103,0.452-0.126,0.635,0
				c0.285,0.292,0.248,0.75,0.332,1.164c0,0.026-0.084,0.054-0.124,0.054c0.08,0.214,0.124,0.763-0.188,0.526
				c-0.376-0.222,0.06-0.766-0.158-1.11c-0.044-0.065-0.271-0.023-0.45-0.023c0.223,0.55-0.262,1.134,0.223,1.664
				c0.184,0.241-0.576,0.565-0.296,0.852c0.162,0.162,0.445,0.324,0.682,0.374c0.134,0.014,0-0.275,0.044-0.374
				c0.04-0.126,0.437-0.264,0.521-0.084c0.044,0.122,0.104,0.271,0.104,0.456c-0.188-0.048-0.376,0.042-0.534,0.114
				c0.158,0.354-0.074,0.6-0.134,0.944c0,0.071,0.114,0.207,0.134,0.3c0.095,0.27,0.54,0.025,0.679,0.243
				c0.104,0.181-0.202,0.387-0.104,0.631c0.08,0.16,0.346,0.065,0.46,0.203c0.168,0.104,0.104,0.318,0.09,0.524
				c0.168-0.02,0.431,0.162,0.362,0.384c0.196,0.076,0.238-0.149,0.222-0.29c0.44,0.019,0.263-0.407,0.312-0.756
				c-0.156,0.078-0.141-0.239-0.312-0.114c-0.084-0.241,0.013-0.504-0.084-0.72c-0.124-0.248-0.485-0.302-0.534-0.63
				c0.305,0.066,0.534-0.042,0.725-0.366c0.107-0.164,0.38,0.072,0.49,0.294c0.054,0.055,0.014,0.12,0.014,0.208
				c0.278-0.09,0.278,0.192,0.382,0.318c0.229,0.158,0.298,0.434,0.556,0.542c0.391,0.116,0.778,0.116,1.173,0.04
				c-0.034-0.178,0-0.364,0.104-0.426c0.174-0.158,0.264,0.18,0.482,0.2c-0.099,0.388,0.1,0.701,0.409,0.896
				c0.08,0.019,0.213-0.032,0.282,0.019c0.128,0.088,0.185,0.291,0.362,0.354c0.128,0.03,0.258-0.061,0.366-0.042
				c0.197,0.042,0.197,0.206,0.231,0.414c0.026,0.02,0.126,0.084,0.126,0.16c0.366-0.076,0.772,0.02,0.876,0.34
				c0.185,0.468,0.515,0.834,0.729,1.256c0.084,0.214,0.456,0.286,0.504,0.48c0.02,0.159,0.13,0.266,0.188,0.3
				c0.242,0.275,0.606,0.361,0.956,0.452c0.126,0.046,0.33-0.2,0.555-0.301c0.113-0.04,0.241,0.078,0.262,0.103
				c0.338,0.546,0.42,1.29,0.962,1.605c0.278,0.162,0.356,0.49,0.644,0.568c0.173,0.042,0.385-0.138,0.559,0
				c0.114,0.084,0.149,0.32,0.238,0.336c0.396,0.187,0.708,0.428,0.792,0.858c0.016,0.063,0.054,0.204,0.164,0.228
				c0.361,0.042,0.657-0.21,0.85-0.023c0.268,0.248,0.61,0.359,0.844,0.604c0.074,0.098,0.272,0.168,0.336,0.098
				c0.094-0.121,0.048-0.342,0.124-0.457c0.104-0.198,0.366-0.135,0.562-0.198c0.241-0.097,0.268-0.548,0.523-0.564
				c0.446-0.076,0.62,0.468,0.971,0.679c0.025,0.039,0.163,0.084,0.212,0.132c0.39,0.21,0.212,0.911,0.678,0.96
				c0.546,0,0.832,0.487,1.324,0.576c0.365,0.115,0.657,0.203,0.991,0.407c0.104,0.072,0.292,0.072,0.421,0.026
				c0.208-0.08,0.397-0.176,0.565-0.294c0.466-0.294,1.074-0.32,1.542-0.63c0.106-0.072,0.21-0.204,0.338-0.252
				c0.786-0.342,1.664,0.3,2.48-0.131c0.2-0.09,0.476-0.09,0.718-0.25c0.49-0.344,0.634-1.041,0.482-1.581
				c-0.347-0.86-0.645-1.753-1.244-2.498c-0.292-0.366-0.679-0.568-1.024-0.944c-0.063-0.102-0.344-0.072-0.506-0.145
				c-0.322-0.142-0.266-0.521-0.208-0.84c0-0.113-0.346-0.113-0.406-0.228c-0.113-0.204,0-0.444,0.032-0.648
				c0.016-0.096-0.124-0.18-0.144-0.18c-0.467-0.088-0.887-0.3-1.353-0.228c-0.156,0.02-0.292-0.145-0.426-0.229
				c-0.084-0.07,0.02-0.228,0.088-0.252c0.27-0.229,0.59-0.39,0.926-0.514c-0.122-0.164-0.134-0.416-0.036-0.477
				c0.185-0.182,0.135-0.504,0.074-0.686c0-0.066-0.074-0.216-0.25-0.216c0.036-0.438,0.286-0.774,0.036-1.158
				c-0.274-0.366-0.654-0.576-0.75-1.044c0-0.046-0.228-0.162-0.228-0.236c0-0.525,0.157-1.109,0.054-1.644
				c-0.08-0.229-0.336-0.5-0.138-0.639c0.084-0.065,0.281-0.208,0.453-0.25c0.372-0.14,0.5-0.392,0.311-0.642
				c-0.187-0.26-0.564,0-0.84-0.09c-0.124-0.036-0.145-0.126-0.154-0.246c-0.07-0.218,0.154-0.559-0.05-0.68
				c-0.168-0.061-0.328-0.229-0.4-0.343c-0.178-0.268-0.032-0.575,0.174-0.846c-0.119,0.01-0.069-0.21-0.203-0.138
				c-0.045-0.282,0.168-0.604,0.044-0.847c-0.089-0.252-0.299-0.565-0.61-0.428c-0.03,0,0,0.09-0.03,0.09
				c-0.168,0.162-0.366,0.204-0.548,0.05c-0.036-0.05-0.036-0.203,0-0.325c0.126-0.156,0.38-0.091,0.514-0.204
				c0.252-0.258,0.036-0.606-0.088-0.744c-0.38-0.336-0.542-0.636-0.46-1.112c-0.441-0.06-1.114-0.114-1.08-0.731
				c0.032-0.54-0.098-1.04-0.231-1.592c-0.104-0.387-0.084-0.791,0.162-1.062c0.069-0.084,0.144-0.24,0.268-0.252
				c0.564-0.08,1.256,0.042,1.578-0.492c0.204-0.384-0.238-0.978,0.104-1.229c0.58-0.433,1.442-0.145,2.145-0.546
				c0.216-0.162,0.188-0.463,0.124-0.704c-0.096-0.271-0.269-0.553-0.416-0.805c-0.242-0.355-0.806-0.18-0.964-0.56
				c-0.08-0.204-0.08-0.412,0-0.594c0.124-0.276,0.365-0.528,0.653-0.668c0.635-0.246,1.238-0.061,1.778,0.252
				c0.172,0.096,0.342,0.287,0.458,0.481c0.036,0.066,0.058,0.162,0.101,0.24c0.168,0.722,0.411,1.49,0.168,2.142
				c-0.114,0.225-0.387,0.364-0.314,0.704c0.178-0.149,0.242,0.09,0.242,0.145c0.132,0.494,0.422,1.17,0,1.478
				c-0.524,0.324-0.484-0.107-1.03,0c-0.271,0.032-0.476-0.048-0.444,0.2c0.019,0.144,0.229,0.468,0.362,0.51
				c1.272,0.324,1.93,0.427,3.274,0.643c0.281,0.065,0.496,0.401,0.832,0.449c0.248,0.038,0.523,0.169,0.8-0.161
				c0.08-0.114,0.342,0,0.372,0.071c0.063,0.261,0.224,0.261,0.392,0.349c0.406,0.199,0.272,1.237,0.812,0.899
				c0.292-0.191,0.544,0.021,0.868-0.046c-0.324,0.444-0.156,0.882,0.157,1.2c0.252,0.313,0.62,0.458,0.922,0.746
				c0.242,0.28,0.628,0.204,0.664-0.181c0.061-0.407-0.38-0.882,0.145-1.235c0.504,0.712-0.145,1.602,0.386,2.256
				c0.034,0.065,0.064,0.094,0.092,0.154c0.238,0.3,0.442,0.613,0.758,0.577c0.234-0.079,0.328-0.3,0.446-0.543
				c0.006-0.091,0.042-0.187,0.064-0.207c0.036-0.233,0.132-0.392,0.2-0.588c0.113-0.317,0.51-0.569,0.443-0.936
				c0-0.114-0.03-0.264-0.03-0.36c0.03-0.5,0.574-0.815,1.051-0.731c0.138,0.031,0.036-0.084,0.162-0.18
				c0.203-0.158,0.155-0.627,0.342-0.86c0.155-0.204,0.336-0.402,0.441-0.606c0.08-0.132,0.232-0.283,0.168-0.462
				C91.834,80.544,91.834,80.298,92.014,80.274z"/>
			<path fill="#FFFFFF" d="M76.982,79.41c-0.198-0.139-0.362-0.038-0.496,0.104c-0.135,0.137-0.154,0.311-0.064,0.418
				c0.094,0.168,0.2,0.366,0.212,0.534c0,0.36-0.088,0.71-0.03,1.095c0.084,0.287,0.421,0.798,0.61,0.459
				c0.208-0.373,0.534-0.93,0.282-1.38C77.292,80.218,77.422,79.668,76.982,79.41z"/>
			<path fill="#FFFFFF" d="M76.276,82.55c0.054,0.132,0.113,0.222,0.168,0.362c0.098,0.292,0.58,0.158,0.752-0.048
				c0.025-0.114,0-0.314-0.126-0.422c-0.135-0.148-0.353-0.124-0.467-0.204c-0.09-0.022-0.184-0.124-0.252-0.094
				C76.248,82.238,76.248,82.414,76.276,82.55z"/>
			<path fill="#FFFFFF" d="M77.124,83.958c0-0.548-0.49-0.716-0.848-0.386c-0.464,0.386,0.075,1.082,0.426,1.58
				c0.054,0.122,0.12,0.283,0.194,0.416c0.168,0.18,0.489,0.113,0.6-0.09c0.084-0.187,0.147-0.255,0.25-0.438
				C77.886,84.652,77.664,83.958,77.124,83.958z"/>
			<path fill="#FFFFFF" d="M76.05,81.092c0-0.084-0.14-0.084-0.168-0.074c-0.218,0.074-0.278,0.246-0.312,0.444
				c-0.066,0.288,0.033,0.56,0.231,0.774c0.088,0.119,0.248-0.024,0.311-0.215C76.248,81.729,76.07,81.41,76.05,81.092z"/>
			<path fill="#FFFFFF" d="M77.546,83.271c0.076-0.067,0.238-0.203,0.204-0.386c0.138,0.026,0.286,0,0.38-0.162
				c0.094-0.071-0.094-0.174-0.044-0.284c-0.302-0.084-0.504,0.211-0.74,0.423C77.134,83.068,77.422,83.362,77.546,83.271z"/>
			<path fill="#FFFFFF" d="M77.168,86.472c-0.044,0.276,0,0.458,0.188,0.517c0.088,0.025,0.264,0.067,0.264-0.061
				c0.023-0.168,0.132-0.332,0.023-0.479c-0.023-0.026-0.098,0-0.119,0C77.356,86.358,77.292,86.596,77.168,86.472z"/>
			<path fill="#FFFFFF" d="M78.112,89.12c0.084-0.21,0.266-0.428-0.076-0.638c-0.064-0.022-0.232-0.022-0.336-0.022
				C77.7,88.778,77.886,89.032,78.112,89.12z"/>
			<path fill="#FFFFFF" d="M55.312,98.05c-0.07,0.036-0.089,0.376,0,0.466c0.098,0.114,0.375,0.072,0.539,0.072
				C55.734,98.312,55.75,97.822,55.312,98.05z"/>
			<path fill="#FFFFFF" d="M57.666,100.428c-0.204,0.366,0.242,0.765,0.778,0.811c0-0.183,0.063-0.402-0.03-0.54
				C58.224,100.446,57.764,100.222,57.666,100.428z"/>
			<path fill="#FFFFFF" d="M58.716,101.854c-0.06,0.652,0.198,1.091,0.86,1.181C59.658,102.34,59.388,101.939,58.716,101.854z"/>
			<path fill="#FFFFFF" d="M94.86,83.48c0.594-0.192,1.332-0.354,2.029-0.354c1.574-0.038,1.486-2.036,2.288-3.302
				c0.172-0.311-0.094-1.008-0.315-1.338c-0.536-0.858-2.204,0.119-2.584-0.786c-0.216-0.513,1.124,0.324,1.252-0.477
				c0.023-0.208-0.104-0.474-0.269-0.552c-0.212-0.124-0.634-0.147-0.802,0c-0.848,0.71-1.006,1.934-1.436,2.738
				c-0.902,1.558-2.515,2.68-3.376,4.416c-0.141,0.258,0.063,0.466,0.275,0.563C93.104,84.786,93.904,83.684,94.86,83.48z"/>
			<path fill="#FFFFFF" d="M101.305,79.62c-0.221,0.078-0.467,0.138-0.585,0.294c-0.092,0.228-0.132,0.602,0,0.81
				c0.07,0.101,0.425,0.12,0.519,0c0.172-0.182-0.059-0.401-0.244-0.512C101.184,80.046,101.375,79.914,101.305,79.62z"/>
			<path fill="#FFFFFF" d="M96.548,85.038c0.5,0.592,1.778,0.396,1.64-0.174c-0.149-0.498-0.997-0.78-1.573-0.614
				C96.248,84.364,97.26,84.786,96.548,85.038z"/>
			<path fill="#FFFFFF" d="M98.218,89.708c0.51-0.224,0.248-0.722,0.318-1.16c-0.528,0.229-0.811,0.606-0.896,1.16
				C97.84,89.708,98.038,89.78,98.218,89.708z"/>
			<path fill="#FFFFFF" d="M104.75,80.214c0.047-0.038,0.098-0.39,0-0.516c-0.109-0.078-0.348,0-0.535-0.048
				c-0.238-0.095-0.316-0.299-0.365-0.555c0-0.317-0.299-0.544-0.213-0.899c-0.396,0.18-0.375,0.618-0.25,0.81
				C103.74,79.542,103.973,80.382,104.75,80.214z"/>
			<path fill="#FFFFFF" d="M96.124,75.758c-0.242-0.126-0.422,0.03-0.242,0.246c0.092,0.114,0.366,0.042,0.53,0.046
				C96.326,75.958,96.276,75.812,96.124,75.758z"/>
			<path fill="#FFFFFF" d="M53.886,89.486c0.084-0.139-0.092-0.24-0.202-0.366c-0.157-0.13-0.342,0.038-0.46-0.13
				c0,0.13-0.042,0.304,0.055,0.408C53.382,89.57,53.686,89.708,53.886,89.486z"/>
			<path fill="#FFFFFF" d="M56.358,89.498c0.248-0.126,0.59-0.222,0.422-0.598c0-0.026-0.061,0-0.114,0
				c-0.396-0.234-0.916-0.145-0.828,0.328C55.854,89.439,56.112,89.66,56.358,89.498z"/>
			<path fill="#FFFFFF" d="M97.142,64.342c0.101-0.24,0.496-0.288,0.442-0.546c-0.032-0.114-0.282-0.114-0.392-0.114
				c-0.183,0.011-0.143,0.265-0.143,0.486c-0.076-0.02-0.132,0-0.132,0.061C96.914,64.342,97.108,64.384,97.142,64.342z"/>
			<path fill="#FFFFFF" d="M98.406,63.858c0.06-0.061,0.281-0.234,0.1-0.385c-0.149-0.138-0.396-0.138-0.466-0.071
				C97.866,63.592,98.14,64.038,98.406,63.858z"/>
			<path fill="#FFFFFF" d="M94.548,73.37c-0.156,0.408,0.588,0.918,0.962,0.678c0.296-0.178,0.162-0.702-0.124-0.852
				C95.114,73.05,94.648,73.116,94.548,73.37z"/>
			<path fill="#FFFFFF" d="M95.416,76.12c0.162-0.15,0-0.362-0.132-0.446c-0.145-0.126-0.42-0.06-0.634,0
				c-0.053,0.03-0.124-0.042-0.2-0.06c-0.054,0.174,0.116,0.256,0.2,0.256C94.946,75.872,95.2,76.29,95.416,76.12z"/>
			<path fill="#FFFFFF" d="M94.286,76.888c-0.204,0.126-0.162,0.517,0.048,0.673c0.229,0.113,0.524,0.067,0.644-0.215
				c0.085-0.235,0.238-0.569,0-0.74C94.698,76.41,94.562,76.726,94.286,76.888z"/>
			<path fill="#FFFFFF" d="M93.558,75.872c0.026,0.38-0.176,0.74-0.088,1.094c0.061,0.208,0.349,0.143,0.393,0
				c0.113-0.332,0-0.624,0.262-0.848c-0.088-0.03-0.204-0.164-0.204,0.084c0.026-0.084,0.098-0.154,0.054-0.234
				C93.86,75.844,93.722,75.872,93.558,75.872z"/>
			<path fill="#FFFFFF" d="M98.376,95.87c0.014,0.004,0.028,0,0.044,0.004c0.014,0,0.03,0,0.044-0.004
				C98.422,95.87,98.406,95.87,98.376,95.87z"/>
			<path fill="#FFFFFF" d="M121.088,101.15c0.029-0.019,0.004-0.068,0-0.093c-0.008,0.068-0.084,0.114-0.146,0.093
				C121.004,101.15,121.08,101.17,121.088,101.15z"/>
			<path fill="#FFFFFF" d="M100.242,87.436c-0.139,0.049-0.114-0.123-0.139-0.155c-0.123-0.132-0.258-0.132-0.308-0.318
				c-0.132-0.264-0.352,0.185-0.618,0.162c-0.031,0-0.096,0.09-0.06,0.187c0.231,0.308-0.036,0.434-0.229,0.655
				c-0.12,0.246,0.242,0.267,0.318,0.517c0.124,0.287-0.194,0.533-0.124,0.848c-0.08,0.08-0.194,0.222-0.356,0.476
				c-0.04,0.038-0.178,0.288-0.113,0.402c0.237,0.278,0.653-0.276,0.908-0.32c0.228,0,0.266,0,0.46-0.138
				c0.262-0.156,0.514-0.252,0.609-0.546c0.04-0.108-0.422-0.156-0.56-0.174c0.212-0.524-0.084-0.679,0.014-1.25
				C100.044,87.762,100.312,87.436,100.242,87.436z"/>
			<path fill="#FFFFFF" d="M102.406,94.266c0,0.024,0.133,0.036,0.172,0c0.223-0.168,0.242-0.462,0.125-0.642
				c-0.082-0.152-0.402-0.152-0.438,0.078C102.215,93.9,102.301,94.098,102.406,94.266z"/>
			<path fill="#FFFFFF" d="M102.723,93.222c0.209-0.046,0.082-0.271-0.027-0.407c-0.074-0.072-0.242-0.108-0.275-0.047
				C102.273,93.018,102.426,93.336,102.723,93.222z"/>
			<path fill="#FFFFFF" d="M104.848,94.302c-0.047-0.012-0.098-0.084-0.062-0.114c-0.191,0-0.379-0.121-0.604-0.062
				c-0.061,0-0.217-0.042-0.328-0.042c-0.029,0.18-0.09,0.428,0.123,0.492C104.289,94.602,104.609,94.602,104.848,94.302z"/>
			<path fill="#FFFFFF" d="M108.543,93.966c0.074,0,0.02-0.342-0.047-0.362c-0.318-0.063-0.592,0.271-0.922,0.156
				c0,0.141-0.035,0.229-0.105,0.309c-0.037,0.027-0.139,0.016-0.219,0.016C107.602,94.514,108.156,94.098,108.543,93.966z"/>
			<path fill="#FFFFFF" d="M109.928,92.706c0.141,0.56,0.764,0.294,0.834-0.092c0-0.272-0.379-0.272-0.5-0.068
				c0.027-0.046,0.053-0.122,0.098-0.186C110.195,92.496,109.875,92.496,109.928,92.706z"/>
			<path fill="#FFFFFF" d="M127.027,81.296c-0.123,0.3,0.418,0.36,0.676,0.454c0.332,0.098,0.861,0.048,0.957-0.25
				c0.145-0.534-0.449-1.082-1.014-1.014C127.15,80.528,127.191,80.942,127.027,81.296z"/>
			<path fill="#FFFFFF" d="M127.121,99.561c-0.18-0.061-0.521-0.061-0.521,0c-0.408,1.768-2.041,4.209-0.088,5.396
				c0.855,0.54,1.92-0.53,2.047-1.086C128.887,102.536,128.738,100.355,127.121,99.561z"/>
			<path fill="#FFFFFF" d="M121.719,91.744c-0.273,0.152-0.332,0.8,0.098,0.8c0.18,0,0.365-0.14,0.516-0.25
				c0.152-0.182,0.129-0.428-0.047-0.481C122.088,91.744,121.871,91.642,121.719,91.744z"/>
			<path fill="#FFFFFF" d="M123.01,109.916c-0.17,0.294-0.127,0.662,0.16,0.86c-0.004-0.265,0.49-0.589,0.127-0.86
				C123.166,109.778,123.068,109.86,123.01,109.916z"/>
			<path fill="#FFFFFF" d="M131.203,68.012c-0.246-0.036-0.328,0.042-0.414,0.181c-0.057,0.233,0.031,0.51-0.057,0.762
				c-0.574,1.604-2.428,3.058-1.555,4.858c0,0.031,0.127,0.031,0.158,0c0.514-0.347,0.822-0.824,1.1-1.328
				c0.525-1.104,0.994-2.24,1.361-3.5C131.852,68.6,131.715,68.061,131.203,68.012z"/>
			<path fill="#FFFFFF" d="M128.207,74.39c-0.135,0.252,0.172,0.452,0.389,0.341c0.205-0.089,0.342-0.444,0.152-0.498
				C128.596,74.158,128.301,74.158,128.207,74.39z"/>
			<path fill="#FFFFFF" d="M109.969,63.364c-0.207-0.654-0.723-0.03-1.146-0.11c-0.182-0.016-0.264-0.246-0.365-0.246
				c-0.16,0.03-0.301,0.053-0.406,0.16c-0.287,0.164-0.068,0.594,0.217,0.54c0.223,0,0.373-0.312,0.469-0.12
				c0.213,0.354,0.072,0.958,0.617,0.834c0.357-0.084,0.568-0.336,0.959-0.372c0.373-0.02,0.42-0.434,0.373-0.722
				c0.396-0.048,0.869-0.374,1.123-0.048c0.123,0.114,0.152,0.359,0.25,0.512c0.123,0.271,0.391,0.336,0.678,0.348
				c0.348-0.084,0.695-0.054,0.963-0.348c0.285-0.342,0.254-0.756-0.107-0.992c-0.139-0.096-0.396,0.03-0.537-0.096
				c-0.293-0.16-0.516-0.414-0.807-0.528C111.215,61.906,110.598,62.806,109.969,63.364z"/>
			<path fill="#FFFFFF" d="M113.066,64.15c-0.105,0-0.221,0-0.332-0.004c-0.016,0-0.023,0-0.039,0.004H113.066z"/>
			<path fill="#FFFFFF" d="M106.379,63.858c0.361-0.068,0.688-0.061,1.053-0.021c0-0.04,0-0.048,0-0.072
				c-0.027-0.594-0.619-0.527-0.947-0.294c-0.035,0,0,0.091,0,0.091c-0.125,0.06-0.285-0.024-0.355,0.031
				C105.996,63.766,106.207,63.928,106.379,63.858z"/>
			<path fill="#FFFFFF" d="M107.686,66.24c0.381-0.5,0.932-0.824,1.518-1.099c0.043,0,0-0.126,0-0.199
				c-0.023,0.048-0.041,0.09-0.07,0.161c-0.119-0.27-0.314-0.462-0.566-0.59c-0.023,0.242-0.293,0.402-0.404,0.5
				c-0.295,0.223-0.67,0.469-0.799,0.782c-0.109,0.258-0.16,0.666,0.051,0.83C107.539,66.708,107.605,66.372,107.686,66.24z"/>
			<path fill="#FFFFFF" d="M102.215,62.71c-0.045,0.168-0.086,0.378,0.133,0.414c0.277,0.08,0.277-0.354,0.135-0.444
				C102.406,62.62,102.248,62.584,102.215,62.71z"/>
			<path fill="#FFFFFF" d="M89.434,54.59c0.423,0.208,0.931,0.208,1.376,0.229c0.076,0,0.326-0.267,0.2-0.452
				c-0.248-0.192-0.634-0.03-0.857-0.324l-0.208-0.04c-0.366-0.114-0.46,0.22-0.668,0.414C89.18,54.554,89.418,54.59,89.434,54.59z"
				/>
			<path fill="#FFFFFF" d="M122.055,60.558c-0.158,0.217-0.467,0.12-0.754,0.217c-0.143,0.038-0.135,0.331-0.059,0.422
				c0.277,0.396,0.605,0.166,0.992,0.084c-0.113,0.144,0.098,0.12,0.148,0.166c0.176,0.12,0.25-0.3,0.422-0.166
				c0.043,0.046,0.043,0.286,0,0.312c-0.254,0.132-0.254,0.387-0.471,0.486c-0.148,0.104-0.434,0.104-0.564-0.174
				c-0.02-0.036-0.137,0-0.211,0c0.039,0,0.055,0,0.074,0c-0.109,0.186,0,0.508-0.109,0.6c-0.443,0.391-1.418,0.696-0.984,1.284
				c0.324,0.44,1.053,0.313,1.648,0.266c0.068,0,0.148-0.109,0.127-0.168c-0.061-0.554,0.236-0.647,0.605-0.926
				c0.152-0.126-0.119-0.3-0.287-0.458c-0.164-0.078,0.004-0.414,0.172-0.414c0.23-0.012,0.23-0.3,0.436-0.234
				c0-0.147,0-0.233,0-0.365c0.348,0.042,0.639-0.198,0.572-0.498c-0.117-0.396-0.477-0.74-0.348-1.166
				c0.029-0.156,0.152-0.324,0.381-0.385c0.115-0.027,0.182-0.174,0.082-0.252c-0.053-0.046-0.123-0.023-0.188-0.023
				c0,0.138-0.219,0.084-0.16,0.2c-0.377,0.08-0.74,0-1.072,0.204C122.125,59.754,122.281,60.252,122.055,60.558z"/>
			<path fill="#FFFFFF" d="M118.254,64.168c0.027,0.424,0.494,0.216,0.729,0.072c-0.15,0.06-0.033-0.139-0.15-0.15
				C118.617,64.054,118.449,64.168,118.254,64.168z"/>
			<path fill="#FFFFFF" d="M123.584,63.334c-0.252,0.348,0.443,0.348,0.713,0.204c0.018,0,0.008-0.042,0-0.068
				c0.027-0.071,0-0.107-0.053-0.138C123.98,63.172,123.656,63.204,123.584,63.334z"/>
			<path fill="#FFFFFF" d="M124.688,61.532c-0.082-0.042-0.227-0.013-0.342-0.013c0.158,0.072,0.158,0.398,0.402,0.349
				c-0.01-0.042-0.041-0.08-0.041-0.162C124.688,61.658,124.736,61.568,124.688,61.532z"/>
			<path fill="#FFFFFF" d="M116.752,47.102c0.33,0.192,0.549,0.469,0.654,0.757c0.158,0.386-0.125,0.882,0.133,1.268
				c0.041,0.16,0.205,0.276,0.275,0.36c0.158,0.184-0.01,0.527,0.045,0.76c0.141,0.51,0.184,0.979,0.242,1.466
				c0.203-0.042,0.203,0.306,0.453,0.22c0,0.301,0.141,0.528,0.189,0.824c0.084,0.332,0.471,0.162,0.686,0.396
				c0.348,0.481,0.672,0.96,1.18,1.296c0.148,0.102,0.387,0.102,0.475,0.246c0.041,0.065,0,0.18,0.078,0.18
				c0.686,0.114,1.635,0.47,1.295,1.296c0.258-0.186,0.561-0.324,0.645-0.612c0.139-0.51,0.25-1.062,0.031-1.56
				c-0.127-0.26-0.512-0.39-0.59-0.678c-0.062-0.21,0-0.402,0.012-0.566c0.016-0.294-0.396-0.193-0.471-0.33
				c-0.162-0.354-0.291-0.954,0.396-0.902c0.025,0-0.105-0.123-0.062-0.25c-0.238,0-0.453,0.043-0.674,0
				c-0.158-0.02-0.158-0.245-0.158-0.319c-0.07-0.376,0.129-0.853-0.207-1.118c-0.293-0.178-0.676-0.234-0.967-0.438
				c-0.246-0.204-0.451-0.364-0.736-0.524c-0.178-0.114-0.484,0.16-0.609,0c-0.57-0.636-0.975-1.38-1.5-2.101
				c-0.207-0.228-0.613-0.222-0.982-0.168c-0.104,0.026-0.049,0.141-0.074,0.2c0.049,0,0.111,0,0.143,0.026
				C116.777,46.89,116.699,47.042,116.752,47.102z"/>
			<path fill="#FFFFFF" d="M113.424,48.286c-0.24,0.34-0.143,0.786,0.092,0.882c0.355,0.145,0.859,0.12,1.293,0.078
				c0.23-0.042,0.387-0.29,0.516-0.522c0.238-0.361,0.848-0.151,1.309-0.313c-0.078,0.282,0.125,0.252,0.287,0.372
				c-0.023-0.312-0.023-0.736-0.221-0.882c-0.418-0.246-0.445-0.606-0.656-0.99c-0.045-0.132-0.283,0.065-0.283,0.128
				c0.045,0.644-0.494,0.528-0.928,0.696c-0.023,0.042,0.031,0.164-0.023,0.21c0,0.023-0.061,0.023-0.135,0
				c-0.08-0.089-0.139-0.126-0.123-0.269c-0.223,0-0.537,0-0.625,0.143C113.793,48.046,113.568,48.088,113.424,48.286z"/>
			<path fill="#FFFFFF" d="M104.986,34.288c-0.393-0.738-0.996-1.41-0.838-2.354c1.125,0.396,2.125,0.204,3.234-0.151
				c0.824-0.229,1.775,0.168,2.578-0.349c0.105-0.09,0.008-0.365,0.008-0.569c-0.926,0.426-1.705-0.794-2.541-0.259
				c-1.088,0.685-2.258,0.853-3.314,1.131c-0.855,0.197-3.082,0.046-3.189,1.321c1.197,0.011,2.508,0.101,3.25,1.171
				C104.289,34.36,104.707,34.288,104.986,34.288z"/>
			<path fill="#FFFFFF" d="M108.656,39.608c0.324,0.571,0.902,0.695,1.439,0.888c0.1-0.288-0.061-0.426-0.229-0.582
				C109.48,39.608,109.096,39.574,108.656,39.608z"/>
			<path fill="#FFFFFF" d="M107.828,41.378c-0.199,0.092,0.027,0.386,0.223,0.546C108.014,41.674,108.344,41.158,107.828,41.378z"/>
			<path fill="#FFFFFF" d="M106.957,40.316c0.055,0.018,0.164,0.018,0.213,0c0.025-0.013,0-0.08,0-0.137
				c0-0.386-0.385-0.494-0.713-0.527c0,0.08-0.029,0.264,0.035,0.283C106.68,40.028,106.732,40.178,106.957,40.316z"/>
			<path fill="#FFFFFF" d="M110.17,44.388c0.025,0.055,0.143,0.114,0.201,0.048c0.082-0.077,0.137-0.184,0.082-0.336
				c0,0,0,0.026,0,0.061c-0.078-0.126,0.09-0.312-0.082-0.428c-0.055-0.024-0.156-0.047-0.176,0
				C109.961,43.944,110.17,44.16,110.17,44.388z"/>
			<path fill="#FFFFFF" d="M111.328,44.442c-0.043,0.176,0,0.3,0.1,0.397c0.096,0.03,0.156,0,0.189-0.06
				c-0.094-0.068-0.094-0.12-0.094-0.23C111.559,44.296,111.363,44.548,111.328,44.442z"/>
			<path fill="#FFFFFF" d="M110.875,45.306c0.049,0.175,0.211-0.06,0.262-0.27c0-0.006,0.025-0.038,0.029-0.054
				c0.033,0.023,0.057,0.048,0.082,0.073c-0.014-0.038-0.041-0.073-0.072-0.107l0,0c-0.166-0.204-0.457-0.366-0.625-0.166
				C110.354,45,110.762,45,110.875,45.306z"/>
			<path fill="#FFFFFF" d="M111.289,45.432c0.117,0.074-0.152,0.026-0.074,0.139c0.213,0.294,0.594,0.443,0.861,0.359
				c0.131-0.088,0.291-0.359,0.158-0.451c-0.219-0.137-0.527-0.049-0.803-0.049C111.402,45.432,111.344,45.432,111.289,45.432z"/>
			<path fill="#FFFFFF" d="M112.973,46.178c0.148-0.084,0.01-0.199,0-0.29c-0.074-0.195-0.191-0.382-0.322-0.256
				c-0.133,0.074-0.234,0.386-0.041,0.5C112.688,46.184,112.84,46.256,112.973,46.178z"/>
			<path fill="#FFFFFF" d="M113.496,47.194c0.072,0.08,0.285-0.078,0.375-0.152c0.053,0,0.025-0.128,0.025-0.208
				c0.088,0.028,0.121,0,0.121-0.08c0.068-0.12,0.037-0.275-0.121-0.328c-0.1-0.038-0.227,0.13-0.354,0.028
				c-0.027,0,0.029-0.066,0-0.114c-0.111-0.084-0.262-0.158-0.34-0.072c-0.145,0.12-0.145,0.341-0.078,0.48
				C113.203,46.89,113.35,47.042,113.496,47.194z"/>
			<path fill="#FFFFFF" d="M112.547,47.972c0.066,0,0.137-0.071,0.148-0.136c0.041-0.15,0.041-0.266,0-0.438
				c-0.012-0.104-0.113-0.104-0.182-0.055c-0.111,0.055-0.102,0.229-0.232,0.26C112.32,47.782,112.408,47.95,112.547,47.972z"/>
			<path fill="#FFFFFF" d="M111.584,30.138c-0.029,0-0.082-0.023-0.082-0.065c0-0.01,0.057-0.04,0.082-0.061
				c-0.182-0.189-0.389-0.052-0.596-0.094C111.121,30.138,111.328,30.324,111.584,30.138z"/>
			<path fill="#FFFFFF" d="M123.691,38.934c0.184,0.181,0.609-0.037,0.812,0.181c0.203,0.233,0.359,0.614,0.715,0.614
				c0.217,0,0.391-0.125,0.418-0.32c0.062-0.59-0.172-1.269-0.746-1.526c-0.545-0.162-1.113-0.162-1.654-0.149
				c-0.357,0-0.357,0.407-0.209,0.569C123.207,38.508,123.441,38.712,123.691,38.934z"/>
			<path fill="#FFFFFF" d="M138.404,57.534c-0.391-0.482-0.422-1.008-0.674-1.398c-0.234-0.366-0.807-0.41-1.105-0.842
				c-0.152-0.208,0.121-0.57-0.111-0.74c-0.123-0.102-0.268-0.214-0.291-0.332c-0.188-0.504-0.422-0.834-0.881-1.067
				c0.143-0.588-0.389-0.876-0.943-1.034c-0.031-0.032,0.051-0.188,0.051-0.25c-0.027-0.23-0.309-0.294-0.496-0.36
				c-0.07-0.042-0.221,0-0.246-0.042c-0.285-0.374-0.672-0.662-0.807-0.979c-0.168-0.528-0.674-0.828-1.107-1.116
				c-0.164-0.084-0.303-0.534-0.389-0.534c-0.305,0-0.723,0.022-0.768-0.324c-0.049-0.653-0.582-1.056-1.066-1.453
				c-0.707-0.511-0.084-1.604-0.334-2.4c-0.062-0.336-0.424-0.336-0.742-0.336c-0.115,0-0.23-0.103-0.287-0.223
				c-0.283-0.491-0.059-1.044-0.385-1.5c-0.496-0.705-1.049-1.237-1.59-1.934c-0.314-0.348-0.768-0.294-1.156-0.33
				c-0.119-0.018-0.186-0.084-0.287-0.156c-0.139-0.09-0.189-0.266-0.275-0.401c-0.217-0.396-0.701-0.57-1.105-0.756
				c-0.74-0.307-1.541-0.15-2.326-0.257c-0.625-0.048-1.309,0.172-1.777,0.559c-0.543,0.408-1.18,0.624-1.877,0.75
				c-0.262,0.048,0.104,0.384,0,0.582c-0.15,0.262-0.541,0.546-0.377,0.798c0.074,0.06-0.133,0.02-0.064,0.108
				c0.146,0.151,0.416,0.037,0.623,0.037c0.246,0.038,0.332,0.303,0.471,0.42c0.303,0.32,0.656,0.625,0.838,1.017
				c0.068,0.147-0.211,0.43-0.074,0.576c0.383,0.396,0.309,0.75,0.309,1.229c0,0.2,0.42,0.012,0.518,0.078
				c0.564,0.294,0.672,1.016,0.518,1.586c-0.082,0.305-0.055,0.744,0.08,0.996c0.283,0.548,0.342,1.34,0.854,1.748
				c0.121-0.174,0.254-0.408,0.348-0.386c0.453,0.06,0.459-0.288,0.746-0.45c0.85-0.576,1.559,0.548,1.793,1.196
				c0.232,0.642,0,1.47,0.289,2.107c0.217,0.622,0.617,1.128,1.23,1.442c0.137,0.08,0.172,0.456,0.293,0.734
				c0.059,0.155,0.215,0.365,0.461,0.197c0.137-0.084,0.066-0.386,0.295-0.474c0.188-0.066,0.389,0.06,0.506,0.164
				c0.547,0.678,0.68,2.078,1.797,1.994c-0.029,0.168,0.094,0.292,0.207,0.336c0.229,0.071,0.391-0.25,0.555,0.042
				c0.174,0.252,0.264,0.578,0.506,0.702c0.381,0.122,0.795-0.022,1.184,0.073c0.242,0.072,0.451,0.366,0.623,0.612
				c0.115,0.168,0.242,0.362,0.396,0.524c0.756,0.731,1.041,1.838,1.947,2.396c0.283,0.188,0.543,0.542,0.951,0.433
				c0.123,0,0.041-0.181,0.158-0.204c0.375-0.04,0.59-0.354,0.746-0.584c0.275-0.366,0.689-0.708,1.174-0.931
				c0.012-0.023,0-0.162,0.012-0.18c0.324-0.27,0.748-0.34,1.057-0.636C138.682,58.146,138.531,57.672,138.404,57.534z"/>
			<path fill="#FFFFFF" d="M124.043,55.852c0.102,0.011,0.168,0.049,0.242,0.08c0.066,0.021,0.137,0.013,0.215,0.04L124.043,55.852z
				"/>
			<path fill="#FFFFFF" d="M123.379,57.852c0.145,0.244,0.465,0.293,0.705,0.448c0.262,0.222,0.389,0.548,0.623,0.685
				c0.469,0.266,0.289-0.526,0.512-0.792c0.086-0.048,0.332,0.042,0.391-0.048c0.277-0.385-0.059-0.984-0.406-1.358
				c-0.287-0.269-0.5-0.696-0.914-0.858c-0.217-0.048-0.422-0.038-0.541,0.2c-0.217,0.338,0.004,0.788-0.16,1.128
				C123.49,57.442,123.305,57.648,123.379,57.852z"/>
			<path fill="#FFFFFF" d="M126.105,59.528c-0.189,0.666-0.059,1.38-0.133,2.094c-0.053,0.356-0.602,0.282-0.816,0.59
				c-0.129,0.166-0.195,0.468-0.158,0.685c0.08,0.468,0.615,0.439,0.943,0.611c0.877,0.44,1.676,1.086,2.172,1.975
				c0.188,0.294,0.266,0.71,0.523,0.962c0.258,0.264,0.742,0.264,0.824,0.737c0.035,0.188,0.369,0.252,0.521,0.145
				c0.459-0.372,0.404-1.086,0.08-1.479c-0.203-0.203-0.404-0.479-0.404-0.708c-0.037-0.972-0.326-1.886-0.85-2.728
				c-0.332-0.462-0.895-0.708-1.238-1.134c-0.043-0.097-0.154-0.25-0.068-0.374c0.115-0.229,0.357-0.385,0.41-0.654
				c0.049-0.5-0.514-0.684-0.648-1.17c0-0.026-0.154,0-0.252,0l0.277,0.084C126.814,58.968,126.23,59.058,126.105,59.528z"/>
			<path fill="#FFFFFF" d="M131.24,64.342c-0.076-0.252,0-0.576-0.041-0.888c-0.043-0.534-0.617-0.618-1.062-0.618
				c-0.205,0-0.445-0.066-0.488,0.16c-0.039,0.206-0.039,0.426,0.121,0.686c0.832,0.95,0.766,2.307,1.127,3.412
				c0.121,0.45,0.893,0.09,1.029-0.384c0.074-0.246,0.088-0.516,0.039-0.75c-0.113-0.246-0.348-0.414-0.4-0.69
				C131.502,64.918,131.293,64.68,131.24,64.342z"/>
			<path fill="#FFFFFF" d="M129.936,61.28c-0.361,0.286,0.16,0.588,0.055,0.991c0.064,0,0.105,0,0.15,0
				c0.238,0.108,0.238-0.18,0.291-0.291c-0.443,0.023-0.365-0.446-0.336-0.698C130.055,61.28,129.99,61.244,129.936,61.28z"/>
			<path fill="#FFFFFF" d="M129.738,60.296c0.023-0.233-0.027-0.468-0.285-0.51c-0.047,0.366-0.414,0.276-0.611,0.468
				c-0.248,0.2,0.021,0.522,0.291,0.63c0.062,0,0.062,0.11,0.102,0.11c0.508,0.204,0.906-0.2,0.701-0.696
				C129.936,60.264,129.822,60.296,129.738,60.296z"/>
			<path fill="#FFFFFF" d="M127.984,58.584c0.451,0.266,0.01,0.746,0.361,0.888c0.252,0.17,0.75,0.261,0.988,0.032
				c0.184-0.138-0.01-0.476-0.381-0.498c-0.145-0.02-0.135-0.288-0.109-0.481c-0.098,0-0.178-0.066-0.211-0.108
				c-0.367-0.246,0.309-0.434,0.113-0.744c-0.068-0.066-0.031-0.218-0.113-0.228c-0.129-0.066-0.283,0.01-0.336,0.161
				c-0.117,0.139,0.086,0.32,0.008,0.486C128.207,58.3,127.797,58.458,127.984,58.584z"/>
			<path fill="#FFFFFF" d="M127.734,56.355c-0.207-0.09-0.543,0.114-0.707-0.252c-0.025-0.039-0.193-0.039-0.254,0
				c-0.055,0.032-0.055,0.097-0.092,0.127c-0.119,0.168-0.258,0.294-0.119,0.418c0.184,0.14,0.23,0.273,0.336,0.428
				c0.125,0.234,0.461,0,0.543,0.21c0.049,0.202,0.234,0.27,0.375,0.166c0.178-0.078,0.033-0.376,0.084-0.532
				c-0.111,0.072-0.053-0.2-0.137-0.074C127.822,56.674,127.93,56.428,127.734,56.355z"/>
			<path fill="#FFFFFF" d="M102.406,72.852c0.02,0,0.09,0,0.133,0c0.016-0.071,0-0.162,0.082-0.258
				c0.082-0.12-0.043-0.294-0.125-0.376c-0.125-0.14-0.375,0-0.293,0.256c0,0,0.07,0,0.131,0
				C102.301,72.594,102.301,72.714,102.406,72.852z"/>
			<path fill="#FFFFFF" d="M130.379,68.334c-0.447-0.174-0.926,0.054-1.34,0.306c-0.863,0.444-0.969,1.604-1.516,2.221
				c-0.375,0.42-0.805,0.63-1.32,0.602c-0.07,0-0.27-0.084-0.291-0.25c0-0.252-0.094-0.512,0.102-0.716
				c0.172-0.136,0.373-0.25,0.496-0.456c0.238-0.384,0.053-0.842-0.041-1.202c-0.207-0.786-1.033-1.25-1.785-1.124
				c-0.758,0.152-1.197,0.938-1.619,1.622c0,0-0.152,0.016-0.152,0c-0.287-0.354-0.666-0.54-0.865-0.914
				c-0.043-0.038-0.043-0.122,0-0.202c0.299,0.164,0.578,0.614,0.891,0.429c0.307-0.181,0.043-0.597-0.199-0.679
				c-0.262-0.088-0.516-0.355-0.852-0.319c-0.23,0.018-0.516-0.33-0.598-0.612c-0.09-0.42-0.131-0.972-0.492-1.086
				c-0.393-0.162-0.754-0.181-1.129-0.45c-0.178-0.09-0.391,0.072-0.559,0.058c0.123-0.117,0.016-0.401,0.074-0.401
				c0.471-0.04,1.049-0.04,0.766-0.57c-0.123-0.25-0.375-0.502-0.672-0.294c-0.094,0.042-0.266,0.042-0.299,0.168
				c-0.057,0.084-0.08,0.208-0.131,0.288c-0.084,0.2,0.143,0.57,0,0.692c-0.293,0.197-0.715,0.178-1.086,0.438
				c-0.043,0.021-0.186,0.021-0.238,0c-0.316-0.108-0.816-0.466-0.969-0.304c-0.221,0.271-0.277,0.613-0.541,0.75
				c-0.229,0.116-0.533,0.132-0.781,0.246c-0.432,0.168-0.182,0.716,0,1.111c0.088,0.137,0.033,0.366-0.123,0.475
				c-0.309,0.172-0.369-0.21-0.443-0.362c-0.123-0.386-0.238-0.815-0.238-1.224c-0.041-0.42,0.494-0.692,0.623-1.094
				c0.094-0.246,0.164-0.526-0.016-0.805c-0.186-0.292-0.496-0.438-0.781-0.348c-0.766,0.204-0.977,1.52-1.74,1.176
				c-0.393-0.15-0.732-0.552-1.154-0.75c-0.242-0.164-0.473-0.33-0.738-0.126c-0.535,0.402-1.188,0.636-1.754,0.914
				c-0.504,0.234-0.947,0.828-1.246,1.38c-0.32,0.698-1.59,1.088-2.012,0.256c-0.203-0.401-0.625-0.72-1.082-0.708
				c-0.414,0.066-0.559,0.606-1.018,0.708c-0.328,0.062-0.52-0.052-0.646-0.304c-0.018-0.066-0.018-0.187,0-0.21
				c0.625-0.51,1.258-0.888,2.031-1.184c0.369-0.125,0.422-0.526,0.281-0.889c-0.004-0.06-0.027-0.166-0.082-0.25
				c-0.039-0.193-0.059-0.486-0.129-0.486c-0.934,0.072-1.725,0.736-2.191,1.591c-0.062,0.118-0.121,0.292-0.195,0.292
				c-0.594-0.049-1.207,0.288-1.702-0.049c-0.106-0.065-0.248-0.75-0.324-0.678c-0.242,0.252-0.388,0.564-0.609,0.836
				c-0.059,0.137-0.219,0.202-0.312,0.342c-0.336,0.517,0.312,1.051,0.162,1.465c-0.098,0.21-0.647,0.21-1,0.294
				c-0.184,0.06-0.184,0.354-0.164,0.588c0.026,0.186,0.23,0.162,0.346,0.229c0.353,0.342,0.372,0.931,0.816,1.135
				c0.54,0.246,1.204,0.077,1.843,0.246c0.414,0.094,0.734,0.382,0.914,0.81c0.104,0.228,0.447,0.348,0.461,0.702
				c0.02,0.12,0.174,0.233,0.344,0.317c0.191,0.068,0.441-0.13,0.635-0.046c0.271,0.078,0.158,0.438,0.229,0.66
				c0.129,0.426-0.09,0.888,0.361,1.311c0.168,0.144-0.178,0.582-0.369,0.827c-0.082,0.085-0.363,0.085-0.387,0.217
				c-0.109,0.38-0.02,0.726,0.166,1.021c0.139,0.172,0.359,0,0.412,0.122c0.332,0.414,0.469,0.876,0.75,1.254
				c0.121,0.143,0.25,0.33,0.41,0.391c-0.203,0.039-0.258,0.289-0.203,0.378c0.123,0.161,0.395,0.264,0.547,0.115
				c0.223-0.151,0.465-0.204,0.691-0.409c0.129-0.145,0.355-0.091,0.494-0.23c0.152,0.145,0.291,0.47,0.18,0.605
				c-0.332,0.326-0.928,0.103-1.307,0.356c-0.266,0.122-0.525,0.054-0.664,0.265c-0.125,0.132,0,0.439,0.238,0.468
				c0.836,0.18,0.184,1.392-0.221,2.014c-0.1,0.132,0,0.36-0.045,0.618c-0.035,0.107-0.193,0.174-0.285,0.174
				c-0.807,0.072-1.625-0.208-2.363,0.054c-0.254,0.072-0.377,0.425-0.496,0.723c0.074,0,0.123,0,0.143,0
				c-0.217,0.021-0.217,0.256-0.27,0.376c-0.041,0.146-0.018,0.422-0.115,0.554c-0.707,0.78-0.807,1.772-0.933,2.676
				c-0.026,0.276,0.323,0.456,0.515,0.456c0.207,0,0.48-0.228,0.656-0.228c0.369,0.046,0.283,0.611,0.41,0.852
				c0.16,0.284,0.703,0.33,0.762-0.04c0.086-0.32,0.086-0.689,0.197-0.972c0.115-0.393-0.299-0.656-0.377-1.017
				c-0.098-0.342,0.074-0.642,0.27-0.873c0.137-0.131,0.355,0.031,0.439,0.229c0.074,0.204,0.074,0.474,0.154,0.708
				c0.047,0.246-0.125,0.542,0.016,0.714c0.137,0.168,0.219,0.398,0.158,0.604c-0.021,0.107-0.158,0.197-0.232,0.328
				c-0.096,0.279,0.074,0.647-0.15,0.752c-0.24,0.186-0.213,0.521-0.5,0.544c-0.639,0.042-1.418-0.298-1.213-1.019
				c-0.254-0.025-0.527-0.025-0.641,0.202c-0.129,0.288,0,0.748-0.17,0.978c-0.238,0.295-0.396,0.603-0.656,0.902
				c-0.088,0.064,0.13,0.114,0.044,0.21c-0.346,0.402-0.742,0.561-1.166,0.872c-0.018,0-0.04,0-0.04,0.078
				c-0.279,0.178-0.737-0.116-0.848,0.214c-0.158,0.344,0.34,0.576,0.506,0.926c0.094,0.236,0.034,0.511-0.288,0.553
				c-0.47,0.113-0.876,0.05-1.372-0.026c0,0.138-0.124,0.122-0.124,0.162c-0.084,0.414,0,0.75-0.321,1.116
				c-0.202,0.264,0.104,0.59,0.281,0.812c0.208,0.276,0.292,0.654,0.55,0.723c0.204,0.05,0.376,0.231,0.564,0.207
				c0.396-0.102,0.68-0.25,0.832-0.678c0.06-0.25,0.49,0.04,0.772-0.046c0.063-0.026,0.207-0.072,0.262-0.114
				c0.22-0.25-0.055-0.613,0.069-0.762c0.433-0.504,0.919-0.914,1.487-1.282c0.189-0.157,0.477-0.317,0.762-0.222
				c0.209,0.066,0.398,0.206,0.633,0.292c0.213,0.11,0.395,0.26,0.613,0.388c0.045,0.046,0.219,0.106,0.328,0.158
				c0.373,0.16,0.604,0.628,1.018,0.864c0.123,0.058,0.029-0.164,0.15-0.072c0.018-0.378-0.062-0.744-0.24-0.966
				c-0.248-0.366-0.656-0.552-0.928-0.848c-0.109-0.089-0.109-0.354,0.041-0.511c0.041-0.071,0.17-0.071,0.182,0
				c0.219,0.198,0.441,0.198,0.676,0.312c0.453,0.198,0.369,0.884,0.811,1.112c0.236,0.123,0.361,0.476,0.641,0.521
				c0.334,0.114,0.873,0,1.049-0.396c0.146-0.241-0.125-0.378-0.295-0.535c-0.334-0.252,0.17-0.366,0.332-0.566
				c0.291-0.35,0-0.648-0.037-0.988c-0.039-0.136,0.062-0.222,0.146-0.285c0,0,0.018-0.043,0.064-0.064
				c0.191-0.416,0.018-0.866,0.174-1.268c0.057-0.089,0.166-0.08,0.166-0.049c0.121,0.2,0.348,0.342,0.555,0.272
				c0.336-0.084,0.602-0.254,0.832-0.554c0.287-0.381,0.902-0.168,1.045,0.191c0.068,0.278-0.018,0.656-0.232,0.729
				c-0.73,0.107-1.309,0.376-1.854,0.744c-0.068,0.063-0.172,0.113-0.209,0.203c-0.287,0.208-0.398,0.42-0.246,0.872
				c0.033,0.168-0.195,0.351-0.352,0.511c0.273,0.092,0.273,0.434,0.525,0.487c0.459,0.108,0.873,0.126,1.201-0.186
				c0.078-0.12,0.172-0.366,0.125-0.574c0.293-0.038,0.492-0.32,0.809-0.388c0.635-0.103,1,0.594,0.832,1.147
				c-0.035,0.108-0.197,0.108-0.25,0.145c-0.328,0.521-0.582,1.034-1.098,1.256c-0.793,0.401-1.764,0.312-2.461,0.722
				c-0.273,0.18-0.355,0.654-0.758,0.767c-0.352,0.09-0.793,0.294-1.15,0c0,0.025,0,0.042,0,0.079c0,0.265-0.822,0.084-1.223-0.079
				c-0.123-0.046-0.045-0.438-0.213-0.584c-0.137-0.093-0.414,0.042-0.471-0.114c-0.082-0.084,0-0.288-0.104-0.314
				c-0.938-0.162-1.809,0.124-2.759,0.026c-0.252-0.026-0.231,0.31-0.441,0.466c-0.173,0.084-0.341,0.252-0.524,0.324
				c-0.376,0.193-0.78,0.462-1.244,0.294c-0.397,0.126-0.764,0.182-1.122,0.248c-0.592,0.116-0.93,0.612-1.42,0.948
				c-0.376,0.252-0.815,0.3-1.231,0.273c-0.124,0-0.055,0.2-0.166,0.2c-0.645,0.164-1.229,0.972-1.595,1.67
				c-0.104,0.187,0.036,0.456-0.084,0.62c-0.334,0.521-0.51,1.038-0.97,1.47c-0.05,0.046-0.05,0.187-0.03,0.271
				c0.515,0.708,1.128,1.182,1.648,1.908c0.128,0.199,0.388,0.199,0.466,0.388c0.202,0.454,0.486,0.862,0.728,1.29
				c0.332,0.605,1.213,0.848,1.965,0.605c0.277-0.078,0.605,0.187,0.857,0.24c0.856,0.08,1.769,0.282,2.574-0.152
				c1.198,0.374,2.452-0.149,3.542,0.374c0.217,0.061,0.217,0.458,0.377,0.723c0.25,0.476,0.541,0.956,0.996,1.296
				c0.387,0.27,0.934,0.452,1.467,0.498c0.15,0,0.174,0.378,0.309,0.534c0.15,0.204,0.084,0.521,0.275,0.678
				c0.27,0.252,0.494,0.434,0.477,0.8c0,0.43-0.531,0.809-0.207,1.38c0.076,0.179-0.041,0.475,0.049,0.586
				c0.686,0.681,1.328,1.318,2.15,1.929c0.082,0.071,0.227,0.174,0.164,0.342c0.316,0.09,0.361,0.408,0.566,0.582
				c0.164,0.206,0.074,0.523,0.238,0.728c0.281,0.336,0.59,0.662,0.91,0.956c0.426,0.384,1.008,0.294,1.508,0.4
				c0.113,0.08,0.25,0.168,0.395,0.21c0.475,0.149,0.994,0.198,1.406-0.12c0.236-0.2,0.445-0.566,0.674-0.704
				c0.365-0.292,0.91-0.268,1.408-0.362c0.094-0.018,0.236-0.071,0.305-0.197c0.062-0.284,0.32-0.433,0.299-0.708
				c0.365-0.017,0.645-0.206,0.951-0.36c0.6-0.314,1.049-0.918,1.617-1.406c0.566-0.527,1.516-0.294,1.822-0.888
				c0.307-0.584-0.119-1.382,0.146-2.06c0.16-0.312,0.357-0.692,0.381-1.043c0.051-0.586,0.072-1.193,0.037-1.781
				c-0.037-0.34-0.387-0.692-0.344-1.028c0.027-0.246,0.449-0.246,0.541-0.45c0.205-0.479,0.404-0.978,0.652-1.428
				c0.041-0.09,0.217-0.132,0.365-0.229c0.215-0.157,0.035-0.401,0.068-0.63c-0.18-0.054-0.266-0.25-0.346-0.366
				c-0.502-0.716-0.969-1.407-1.809-1.75c-0.201-0.058-0.219-0.281-0.312-0.449c-0.082-0.064,0.027-0.286-0.051-0.366
				c-0.221-0.124-0.135-0.336-0.195-0.494h0.195c-0.012-0.002,0-0.016,0-0.016c-0.084,0-0.125-0.072-0.125-0.099
				c0.191-0.496,0.471-0.947,0.848-1.271c0.113-0.11,0.398-0.11,0.439-0.24c0.104-0.426,0.08-0.864-0.123-1.226
				c-0.309-0.522-0.041-1.044-0.123-1.538c-0.08-0.982-0.08-1.878-0.529-2.769c-0.098-0.273-0.352-0.481-0.695-0.382
				c-0.168,0.026-0.152,0.244-0.248,0.382c-0.123,0.141-0.143,0.32-0.205,0.566c-0.139,0.326-0.576,0.424-0.691,0.77
				c-0.059,0.208-0.117,0.408-0.205,0.542c-0.158,0.164-0.299,0.389-0.51,0.431c-0.359,0.12-0.695,0.202-1.027,0.268
				c-0.365,0.078-0.762,0.078-1.148-0.038c-2.051-0.567-3.803-1.359-5.859-1.926c-0.02,0-0.02-0.14,0-0.162
				c0.324-0.162,0.668,0.07,1.004-0.018c0.23-0.042-0.049-0.366,0.066-0.366c0.426,0.102,0.777,0.384,1.203,0.548
				c0.85,0.292,1.695,0.376,2.602,0.566c0.703,0.155,1.186,0.653,1.857,0.821c0.568,0.175,0.936-0.256,1.377-0.434
				c0.025,0-0.008-0.182,0.025-0.232c0.201-0.365,0.561-0.56,0.709-0.901c0.105-0.248-0.049-0.632,0.105-0.914
				c0.078-0.13,0.305-0.267,0.363-0.42c0.117-0.44,0.047-0.889,0.047-1.32c0.25,0.024,0.445-0.252,0.375-0.366
				c-0.059-0.067-0.078-0.176-0.125-0.239c0-0.255,0.043-0.524,0.1-0.793c0.131-0.642-0.053-1.273-0.316-1.817
				c-0.131-0.288-0.521-0.366-0.828-0.288c-0.094,0.06-0.127,0.228-0.225,0.288c-0.312,0.021-0.574,0.16-0.77,0.315
				c-0.264,0.213-0.25,0.662-0.477,0.849c-0.387,0.326-0.766,0.666-1.273,0.86c-0.328,0.155-0.793-0.032-0.867-0.301
				c-0.311-0.836,0.82-0.686,1.395-0.836c0.078-0.054,0.207-0.191,0.275-0.3c0.158-0.292,0.221-0.722,0.545-0.876
				c0.207-0.078,0.447-0.078,0.656-0.048c0.203,0.048,0.363-0.24,0.576-0.36c0.164-0.08,0.154-0.408,0.219-0.588
				c0.104-0.342,0.479-0.521,0.635-0.816c0.355-0.636,0.355-1.59,0.871-2.088c0.346-0.27,0.162,0.456,0.293,0.614
				c0.215,0.298,0.824,0.269,1.031,0.048c0.18-0.18-0.023-0.638,0.301-0.815c0.143-0.03,0.311-0.03,0.434,0
				c0.238,0.157,0.529,0.426,0.783,0.277c0.178-0.122,0.365-0.374,0.545-0.434c0.293-0.096,0.625,0,0.93-0.132
				c0.734-0.342,2.285,0.132,2.201-0.584c-0.127-1.152-1.064-2.064-2.086-2.601c-0.811-0.386-0.502-1.52-1.229-2.155
				c-0.186-0.133-0.086-0.427-0.246-0.606c-0.049-0.06-0.156-0.152-0.273-0.204c-0.107-0.086-0.227-0.186-0.227-0.222
				c0.123-0.603-0.168-1.164,0.15-1.664c0.162-0.242,0.525-0.362,0.73-0.534c0.26-0.208,0.729-0.372,0.729-0.716
				c0-0.468-0.051-0.979,0.033-1.464c0.041-0.162,0.332-0.294,0.5-0.294c0.854-0.019,1.762,0.208,2.541-0.309
				c0.201-0.174,0.219-0.424,0.344-0.582c0.613-0.888,1.533-1.58,1.496-2.733c-0.02-0.206,0.309-0.256,0.387-0.504
				C130.432,68.54,130.432,68.334,130.379,68.334z M114.047,87.714c0,0.068,0.035,0.174-0.039,0.202
				c-0.141,0.166-0.443,0.072-0.516-0.152c-0.113-0.228-0.211-0.481-0.445-0.569c-0.211-0.042-0.402-0.019-0.516,0.204
				c-0.217-0.164-0.445-0.043-0.648-0.084c0.07-0.349-0.277-0.324-0.461-0.553c-0.211-0.204-0.133-0.611,0.191-0.718
				c0.25-0.114,0.455,0.088,0.512,0.366c-0.035-0.048-0.053-0.048-0.066-0.104c0,0.104-0.045,0.168,0,0.236
				c0.223,0.208,0.484-0.068,0.727,0.116c0.283,0.168,0.668-0.098,0.996,0.094c0.016,0-0.043,0.16,0.072,0.16
				c0.365,0.058,0.49,0.376,0.404,0.648C114.232,87.62,114.176,87.746,114.047,87.714z"/>
			<g>
				<path fill="#FFFFFF" d="M80.878,150.109c4.61-6.828,18.566-14.148,32.243-14.148c13.754,0,28.611,7.947,34.488,3.742
					c0,0-6.006,5.197-18.123,5.197c-12.131,0-16.746-6.119-25.17-6.119c-8.425,0-17.339,6.818-21.053,12.547L80.878,150.109z"/>
				<path fill="#FFFFFF" d="M124.168,134.969c0,0,4.012-2.395,6.094-6.803c2.129-4.434,7.629-11.44,13.176-15.752
					c0,0-6.234,19.67-12.648,20.543c0,0-1.02,0.615,0.791,0.309c1.824-0.309,10.029-3.32,12.951-3.83
					c2.889-0.49,10.012-2.102,11.926-4.002c1.613-1.604,2.699-1.379,2.699-1.379s-7.914,13.209-22.152,13.209
					C136.998,137.262,129.99,136.67,124.168,134.969z"/>
				<path fill="#FFFFFF" d="M141.004,128.166c0,0,1.492-2.295,1.801-6.24c0.312-3.906,2.709-12.912,9.549-22.748
					c0,0,0.998,15.548-6.75,25.074c0,0-0.463,1.389,0.529,0.373c1.008-1.008,5.885-6.887,16.449-14.035c0,0,5.482-4.51,5.793-6
					C168.375,104.596,164.078,126.658,141.004,128.166z"/>
				<path fill="#FFFFFF" d="M154.371,113.402c0,0,0.594-2.49,0.594-4.599c0-2.118-0.906-9.332-0.906-12.548
					c0-3.22,0.316-9.212,2.795-13.275c0,0,0,3.577,0.795,5.193c0.812,1.578,1.715,7.994,1.715,8.786
					c0,0.796-0.211,6.228-1.611,9.126c0,0,1.014-0.588,2.123-2.686c1.102-2.137,3.791-6.028,7.926-10.135
					c4.102-4.107,5-7.907,5-7.907s1.008,7.206-4.311,14.792c-5.316,7.666-7.514,6.328-10.42,9.451
					C158.066,109.596,154.742,113.624,154.371,113.402z"/>
				<path fill="#FFFFFF" d="M162.648,96.074c0,0-0.172-4.418-0.969-5.818c-0.84-1.436-5.609-10.114-4.621-21.24
					c0,0,0.793-0.71,2.305,3.608c1.473,4.318,3.619,5.602,4.299,9.926c0.725,4.28,0.725,6.095,0.725,6.095s0.48,0.602,0.48,0.111
					c0-0.523,0.508-6.313,2.926-11.616c2.391-5.308,5.59-10.327,5.301-13.854c0,0,1.408,0.114,1.188,5.826
					C174.105,74.842,172.594,84.768,162.648,96.074z"/>
				<path fill="#FFFFFF" d="M165.293,78.52c0,0-1.729-3.981-2.93-5.313c-1.203-1.272-9.541-13.422-10.215-18.946
					c0,0,0.678-0.372,1.488,1.008c0.812,1.431,4.824,5.41,5.516,6.022c0.723,0.614,4.928,5.124,5.324,9.922
					c0,0,0.398,0.51-0.396-7.518c-0.791-8.011,2.619-13.206-0.197-18.845c0,0,3.914,0.606,6.004,17.055c0,0-0.09,5.812-3.102,12.936
					C166.789,74.842,165.773,78.52,165.293,78.52z"/>
				<path fill="#FFFFFF" d="M162.268,60.5c0,0-3.117-3.212-5.627-4.714c-2.48-1.526-10.301-9.23-11.707-15.252
					c0,0,0.498-0.668,3,2.61c1.91,2.523,3.895,1.291,9.629,8.527c0,0,0.805,1.616,1.207,1.484c0.381-0.066-0.211-1.681-0.211-1.681
					s-1.113-4.5-1.209-6.13c-0.082-1.611-2.377-10.107-3.188-11.218c0,0,7.705,4.4,8.826,16.834
					C162.982,50.958,162.648,59.984,162.268,60.5z"/>
				<path fill="#FFFFFF" d="M155.645,47.246c0,0,0.525-10.838-13.766-16.346c0,0,4.955,10.142,8.66,12.546
					C154.248,45.866,155.645,47.246,155.645,47.246z"/>
			</g>
		</g>
		<g>
			<path fill="#FFFFFF" d="M119.16,150.109c-4.613-6.828-18.572-14.148-32.272-14.148c-13.716,0-28.586,7.947-34.494,3.742
				c0,0,6.017,5.197,18.162,5.197c12.112,0,16.754-6.119,25.168-6.119c8.394,0,17.3,6.818,21.026,12.547L119.16,150.109z"/>
			<path fill="#FFFFFF" d="M75.882,134.969c0,0-4.021-2.395-6.149-6.803c-2.091-4.434-7.61-11.44-13.126-15.752
				c0,0,6.21,19.67,12.651,20.543c0,0,0.998,0.615-0.806,0.309c-1.812-0.309-10.036-3.32-12.942-3.83
				c-2.912-0.49-10.029-2.102-11.943-4.002c-1.595-1.604-2.708-1.379-2.708-1.379s7.92,13.209,22.176,13.209
				C63.034,137.262,70.04,136.67,75.882,134.969z"/>
			<path fill="#FFFFFF" d="M59.014,128.166c0,0-1.491-2.295-1.804-6.24c-0.292-3.906-2.708-12.912-9.516-22.748
				c0,0-1.011,15.548,6.693,25.074c0,0,0.53,1.389-0.479,0.373c-0.996-1.008-5.912-6.887-16.468-14.035c0,0-5.503-4.51-5.788-6
				C31.65,104.596,35.962,126.658,59.014,128.166z"/>
			<path fill="#FFFFFF" d="M45.676,113.402c0,0-0.6-2.49-0.6-4.599c0-2.118,0.901-9.332,0.901-12.548
				c0-3.22-0.302-9.212-2.804-13.275c0,0,0,3.577-0.802,5.193c-0.806,1.578-1.708,7.994-1.708,8.786c0,0.796,0.188,6.228,1.61,9.126
				c0,0-1-0.588-2.135-2.686c-1.1-2.137-3.804-6.028-7.899-10.135c-4.09-4.107-5.01-7.907-5.01-7.907s-0.994,7.206,4.317,14.792
				c5.309,7.666,7.492,6.328,10.416,9.451C41.968,109.596,45.282,113.624,45.676,113.402z"/>
			<path fill="#FFFFFF" d="M37.354,96.074c0,0,0.209-4.418,1-5.818c0.799-1.436,5.622-10.114,4.612-21.24
				c0,0-0.798-0.71-2.298,3.608c-1.514,4.318-3.594,5.602-4.328,9.926c-0.698,4.28-0.698,6.095-0.698,6.095
				s-0.485,0.602-0.485,0.111c0-0.523-0.524-6.313-2.912-11.616c-2.398-5.308-5.626-10.327-5.322-13.854c0,0-1.41,0.114-1.208,5.826
				C25.916,74.842,27.422,84.768,37.354,96.074z"/>
			<path fill="#FFFFFF" d="M34.742,78.52c0,0,1.708-3.981,2.92-5.313c1.212-1.272,9.502-13.422,10.229-18.946
				c0,0-0.728-0.372-1.52,1.008c-0.804,1.431-4.802,5.41-5.516,6.022c-0.715,0.614-4.893,5.124-5.334,9.922
				c0,0-0.366,0.51,0.439-7.518c0.772-8.011-2.605-13.206,0.202-18.845c0,0-3.92,0.606-6.04,17.055c0,0,0.104,5.812,3.108,12.936
				C33.236,74.842,34.25,78.52,34.742,78.52z"/>
			<path fill="#FFFFFF" d="M37.76,60.5c0,0,3.094-3.212,5.616-4.714c2.508-1.526,10.31-9.23,11.74-15.252
				c0,0-0.521-0.668-3.021,2.61c-1.905,2.523-3.92,1.291-9.609,8.527c0,0-0.803,1.616-1.208,1.484
				c-0.42-0.066,0.193-1.681,0.193-1.681s1.122-4.5,1.194-6.13c0.1-1.611,2.416-10.107,3.222-11.218c0,0-7.744,4.4-8.812,16.834
				C37.072,50.958,37.354,59.984,37.76,60.5z"/>
			<path fill="#FFFFFF" d="M44.39,47.246c0,0-0.523-10.838,13.714-16.346c0,0-4.905,10.142-8.615,12.546
				C45.788,45.866,44.39,47.246,44.39,47.246z"/>
		</g>
	</g>
</g>
</svg>
